<svg viewBox="0 0 52 15" fill="none" xmlns="http://www.w3.org/2000/svg">
    <path d="M.265 15V.455h9.801V2.99H3.34v3.466h6.222v2.535H3.34v3.473h6.755V15H.265z" fill="currentColor" />
    <path
        d="M18.851 6.527v2.4h-6.633v-2.4h6.633zM23.593 15h-3.295L25.319.455h3.963L34.297 15H31L27.358 3.778h-.114L23.594 15zm-.206-5.717h7.785v2.4h-7.785v-2.4zM35.647 15V.455h5.739c1.103 0 2.043.21 2.82.632a4.28 4.28 0 011.775 1.74c.412.738.618 1.59.618 2.557 0 .965-.208 1.818-.625 2.556-.417.739-1.02 1.314-1.811 1.726-.786.412-1.738.618-2.855.618H37.65V7.82h3.16c.592 0 1.08-.102 1.464-.306.388-.208.677-.495.866-.86.194-.368.291-.792.291-1.27 0-.483-.097-.905-.29-1.265a1.944 1.944 0 00-.867-.845c-.389-.203-.881-.305-1.478-.305h-2.074V15h-3.075zM51.272.455V15h-3.076V.455h3.076z"
        fill="#0A80EC" />
</svg>