<svg viewBox="0 0 24 24" fill="none" xmlns="http://www.w3.org/2000/svg">
    <path fill-rule="evenodd" clip-rule="evenodd"
        d="M5.775 4.284c0 1.245-.948 2.253-2.43 2.253C1.918 6.537.97 5.529 1 4.284.97 2.978 1.919 2 3.373 2c1.454 0 2.373.978 2.402 2.284zM1.12 22.819V8.316h4.507v14.502l-4.507.001zM9.24 12.945c0-1.81-.06-3.352-.12-4.627h3.916l.208 1.987h.089c.593-.92 2.075-2.312 4.478-2.312C20.776 7.993 23 9.95 23 14.219v8.602h-4.507v-8.037c0-1.87-.652-3.144-2.283-3.144-1.246 0-1.987.86-2.283 1.69-.12.297-.178.711-.178 1.127v8.364H9.242v-9.876H9.24z"
        fill="currentColor" />
</svg>