<svg viewBox="0 0 69 31" fill="none" xmlns="http://www.w3.org/2000/svg">
    <path
        d="M15.243 6.212l2.354 10.576H15.73l-.486-2.22h-3.95l-.516 2.22H9l2.415-10.576h3.828zm-.32 6.769L13.8 7.904h-1.003l-1.184 5.077h3.31zm10.495-6.77v1.693H20.39v2.75h4.876v1.662H20.39v4.472h-1.823V6.212h6.85zm3.584 8.885V7.904h-2.46V6.212h6.743v1.692h-2.46v7.192h2.46v1.692h-6.744v-1.692h2.461zm5.163-2.085h1.777v.604c0 .318.046.59.167.801.122.212.274.393.486.53a2.2 2.2 0 00.745.301c.288.06.607.09.972.09.76 0 1.321-.12 1.655-.362.335-.242.517-.634.517-1.193 0-.424-.122-.74-.334-.983-.213-.241-.562-.407-1.048-.498l-2.31-.499c-.88-.181-1.518-.513-1.913-1.012s-.577-1.088-.577-1.783c0-.423.076-.816.243-1.179a2.55 2.55 0 01.714-.952c.319-.272.729-.483 1.215-.634A5.664 5.664 0 0138.16 6c.638 0 1.215.076 1.716.227.486.15.897.362 1.23.634a2.708 2.708 0 01.988 2.085v.831h-1.777V9.37a2 2 0 00-.167-.847 1.499 1.499 0 00-.471-.544 2.244 2.244 0 00-.699-.272 3.862 3.862 0 00-.85-.09c-.274 0-.532.03-.775.075-.243.046-.44.121-.623.227a1.18 1.18 0 00-.44.423c-.107.181-.152.393-.152.65 0 .15.015.302.045.438.03.151.091.272.198.378.09.12.228.211.41.302.182.09.425.166.729.226l2.187.439c.85.181 1.504.498 1.96.982.44.483.668 1.118.668 1.934 0 .499-.091.952-.258 1.36a2.92 2.92 0 01-.775 1.042c-.35.288-.775.514-1.291.665-.517.166-1.094.242-1.762.242-.79 0-1.443-.09-1.96-.287-.516-.181-.941-.423-1.245-.725a2.672 2.672 0 01-.684-.998 2.955 2.955 0 01-.197-1.057v-.922zm11.22-6.8v4.352h4.222V6.212h1.823v10.576h-1.823v-4.533h-4.223v4.533h-1.822V6.212h1.822zm13.26 0L61 16.79h-1.868l-.486-2.222h-3.95l-.516 2.221h-1.777l2.415-10.576h3.828zm-.318 6.77l-1.124-5.077H56.2l-1.185 5.077h3.312z"
        fill="#48C78E" />
    <path d="M46.93 24.243h1.948v-.716H46.93v.716z" fill="#323232" />
    <path
        d="M50.078 21.758v3.454h-.75v-3.328l-.107-.126h-2.634l-.107.126v3.328h-.728v-3.454h.621l.107-.147v-.59h2.849v.59l.107.147h.642zm-21.011 3.454v-.716h-3.405v-1.032h2.87v-.716h-2.87v-1.011h3.405v-.716h-4.133v4.191h4.133zm12.059-.59v.59h3.619v-.716h-3.512l-.086-.127v-3.348h-.75v3.474h.622l.107.127zm-5.782.59h4.155v-.716h-3.406v-.885l.086-.147h2.784v-.716H36.18l-.086-.127v-.884H39.5v-.716h-4.155v1.726h.642l.107.148v.442l-.107.148h-.642v1.726zm-20.219 0h3.62v-.716h-3.62v-.885l.107-.147h2.977v-.716h-2.977l-.107-.127v-.884h3.62v-.716h-4.349v1.727h.622l.107.147v.442l-.107.127h-.622v1.748h.729z"
        fill="#323232" />
    <path fill-rule="evenodd" clip-rule="evenodd"
        d="M60.378 21.737H61v2.759h-.62l-.108.147v.569h-3.105v-.57l-.107-.146h-.621v-2.759h.62l.108-.147v-.569h3.105v.569l.107.147zm-3.212 2.632l.107.148h2.891l.107-.127v-2.527l-.107-.126h-2.891l-.107.126v2.506zm-36.922.843h-.728v-3.475h.62l.108-.126v-.59h3.084v.59l.107.126h.621v1.369h-.621l-.107.147v.569h-.771l1.028.8v.59h-.578L22 24.431v-.61h-1.756v1.39zm2.998-2.085l.086-.127v-1.116l-.107-.147h-2.87l-.107.147v1.243h2.998zm6.725 2.085V21.02h3.641v.59l.107.126h.62v2.759h-.62l-.107.126v.59h-3.641zm.728-.716h2.806l.107-.127v-2.506l-.107-.126h-2.806v2.759z"
        fill="#323232" />
    <path
        d="M54.832 24.495h-.621l-.108-.147v-.716l-1.199-1.895h-.321l-.107-.126v-.59H51.02v4.191h.727v-3.475h.622l.107.126v.695l1.242 1.938h.278l.107.126v.59h1.457V21.02h-.728v3.474z"
        fill="#323232" />
    <path fill-rule="evenodd" clip-rule="evenodd"
        d="M13.562 21v2.8H9.728v1.433H9V21h4.562zm-.728.716H9.728v1.369h3.106v-1.369z" fill="#323232" />
</svg>