<svg viewBox="0 0 24 24" fill="none" xmlns="http://www.w3.org/2000/svg">
    <path fill-rule="evenodd" clip-rule="evenodd"
        d="M2.493 10.749c5.83-2.54 9.718-4.215 11.664-5.024 5.554-2.31 6.708-2.712 7.46-2.725.166-.003.536.038.775.233.203.164.258.386.285.541.026.156.06.51.033.788-.3 3.162-1.603 10.837-2.266 14.379-.28 1.498-.832 2-1.366 2.05-1.162.107-2.044-.767-3.169-1.505-1.76-1.154-2.754-1.872-4.463-2.998-1.975-1.301-.695-2.016.43-3.185.295-.306 5.413-4.96 5.512-5.383.012-.053.023-.25-.093-.354-.117-.104-.29-.068-.415-.04-.176.04-2.988 1.899-8.436 5.576-.798.548-1.52.815-2.169.801-.714-.015-2.087-.403-3.108-.735-1.253-.407-2.248-.623-2.162-1.314.045-.36.541-.729 1.488-1.105z"
        fill="currentColor" />
</svg>